<svg id="Layer_1" xmlns="http://www.w3.org/2000/svg" version="1.1" viewBox="0 0 105.6 34"><defs><style>.st0{fill:#fff}</style></defs><g id="Layer_11" data-name="Layer_1"><path class="st0" d="M31.2 13.5H29s-.2 0-.2.2l-2 7-2-7-.2-.2h-2.2c-.2 0-.2.2-.2.3l3.3 9.4.2.2h2.4s.2 0 .2-.2l3.2-9.4c.24-.25-.1-.32-.3-.3zM38.7 15.5v-1.7q0-.2-.2-.2h-2.1q-.2 0-.2.2v9.4q0 .2.2.2h2.1q.2 0 .2-.2v-4.8c0-1.4 1.3-2.7 2.7-2.4q.2 0 .2-.2v-2.4c-1.26-.08-2.44.57-3 2.1h.1zM53.8 10.6l-2.1.5-.2.2v11.8q0 .2.2.2h2.1q.2 0 .2-.2V10.8c0-.2-.1-.2-.3-.2h.1zM63.7 13.3c-1.4 0-2.2.5-3 1.6v-1.2q0-.2-.2-.2h-2.1q-.2 0-.2.2v9.4q0 .2.2.2h2.1q.2 0 .2-.2v-5.6c-.17-2.25 4.11-2.78 3.8-.1v5.9q0 .2.2.2h2.1q.2 0 .2-.2v-6.5c-.1-2.2-1.3-3.4-3.4-3.4l.1-.1zM76.2 22v-5.7c0-2-1.3-3-4-3s-3.9 1.1-4.2 3.2q0 .2.2.2h2.1q.2 0 .2-.2c.2-.9.6-1.1 1.8-1.1s1.4.3 1.4 1-.2.6-.5.8c-2.19.77-5.7.35-5.6 3.7-.05 3.17 4.01 3.91 5.7 1.9.2-.2.3 0 .4.2 0 .2 0 .3.2.5h2.9v-.3c-.5-.5-.6-.7-.6-1.2zm-2.4-2.6c0 1.4-.8 2.3-2 2.3-2.02.09-1.79-2.29 0-2.6l.9-.2c.5 0 .6-.2.8-.2s.3 0 .3.2v.5zM84.9 13.5h-2.1q-.2 0-.2.2v9.4q0 .2.2.2h2.1q.2 0 .2-.2v-9.4c0-.1 0-.2-.2-.2z"/><path class="st0" d="M91 13.3c-6.42-.34-6.41 10.8.1 10.4 6.76.27 6.34-10.81-.1-10.4zm0 8.4c-3.05.23-3.05-6.63 0-6.4 3.05-.23 3.05 6.63 0 6.4z"/><path class="st0" d="M102.4 13.3c-1.4 0-2.2.5-3 1.6v-1.2q0-.2-.2-.2h-2.1q-.2 0-.2.2v9.4q0 .2.2.2h2.1q.2 0 .2-.2v-5.6c-.15-2.22 4.03-2.84 3.7-.1v5.9q0 .2.2.2h2.1q.2 0 .2-.2v-6.5c.1-2.2-1.1-3.4-3.3-3.4l.1-.1zM46.3 13.3c-2.5 0-3.9 1.1-4.2 3.2q0 .2.2.2h2.1q.2 0 .2-.2c.2-.9.6-1.1 1.8-1.1s1.4.3 1.4 1-.2.6-.5.8c-2.19.77-5.7.35-5.6 3.7-.05 3.17 4.01 3.91 5.7 1.9.2-.2.3 0 .4.2 0 .2 0 .3.2.5.02-.01 1.91 0 2 0q.2 0 .2-.2v-6.8c0-2.1-1.3-3.1-4-3.1l.1-.1zm1.5 6.1c0 1.4-.8 2.3-2 2.3-2.02.09-1.79-2.29 0-2.6l.9-.2c.5 0 .6-.2.8-.2s.3 0 .3.2v.5zM81 15.2q.2 0 .2-.2l.5-1.2q0-.2-.2-.2h-1.4v-2.7c0-.2-.2-.2-.3-.2l-2.1.5-.2.2v3.7q0 .2.2.2h1.8c-.21.18-2.02 1.08-2 1.4v4.6c0 1.5.8 2.3 2.5 2.3s.9 0 1.3-.2l.2-.2v-1.4c-.04-.31-.34-.17-.5-.2-.7 0-.8-.2-.8-1.1v-5.3h.9-.1zM34.6 13.5h-2.1q-.2 0-.2.2v9.4q0 .2.2.2h2.1q.2 0 .2-.2v-9.4c0-.1-.1-.2-.2-.2zM34.7 10.2h-2.1q-.2 0-.2.2v1.8q0 .2.2.2h2.1q.2 0 .2-.2v-1.8q0-.2-.2-.2zM85 10.2h-2.1q-.2 0-.2.2v1.8q0 .2.2.2H85q.2 0 .2-.2v-1.8c-.1-.2-.2-.2-.2-.2zM20.4 9h-2.5l-7.5 12.9-3.5-6.2-1.5 2.6 3.7 6.5.2.2h2.3s.2 0 .2-.2l8.9-15.5c0-.1-.2-.4-.4-.4l.1.1z"/><path class="st0" d="M10.3 19.6 16.5 9h-2.9s-.2 0-.2.2l-3 5.2-3-5.2-.2-.2H.3c-.2 0-.3.2-.2.4l4.5 7.7 2.2-3.8 3.6 6.3h-.1z"/></g></svg>