<svg xmlns="http://www.w3.org/2000/svg" viewBox="0 0 72.9 34"><defs><style>.cls-1{fill-rule:evenodd}.cls-1,.cls-2{fill:#fff}</style></defs><g id="Layer_1"><path class="cls-1" d="M3.1 7C1.4 7 0 8.4 0 10.1V27h16.9c1.7 0 3.1-1.4 3.1-3.1V7H3.1zm15.4 1.5H3.1c-.9 0-1.6.7-1.6 1.6v15.3h15.3c.9 0 1.6-.7 1.6-1.6V8.5z"/><path class="cls-2" d="M3.7 16.2h2.8c0 .9-.3 1.8-.8 2.5-.5.6-1.2 1-1.9 1v3.5c1.5 0 2.9-.7 3.9-2.1 1.1-1.4 1.6-3.2 1.6-5v-5.5H5.4c-.9 0-1.6.7-1.6 1.6v3.9zm12.6 1.6h-2.8c0-.9.3-1.8.8-2.5.5-.6 1.2-1 1.9-1v-3.5c-1.5 0-2.9.7-3.9 2.1-1.1 1.4-1.6 3.2-1.6 5v5.5h3.9c.9 0 1.6-.7 1.6-1.6v-3.9zM28.9 9.6h-3.6v14.6h3.6v-5.5h5.5v5.5H38V9.6h-3.6v5.5h-5.5V9.6z"/><path class="cls-1" d="M56.8 24.4c2.7 0 4.5-2.1 4.5-5.6s-1.8-5.5-4.5-5.5c-1.2 0-2.3.5-3 1.5V9.6h-3.3v14.6h3.2v-1.5c.7 1.1 1.8 1.7 3.2 1.7zm-.9-2.6c-1.4 0-2.2-1.2-2.2-2.9s.7-3 2.2-3 2.1 1.2 2.1 3-.7 2.9-2 2.9zm-13.1 2.5c1.6 0 2.5-.5 3.1-1.4 0 .5.2.9.4 1.3h3.1c-.3-.4-.3-.9-.3-1.8v-5.3c0-1.3-.4-2.3-1.3-3-.8-.6-1.8-.9-3.4-.9-3.2 0-4.7 1.7-4.8 3.6h3.1c.1-.9.7-1.3 1.8-1.3s1.4.5 1.4 1.1-.7.9-2.7 1.2c-2.2.3-4 1-4 3.3s1.5 3.2 3.6 3.2zm1.1-2.1c-.8 0-1.4-.3-1.4-1.2s.5-1.1 1.8-1.4c.6-.1 1.2-.3 1.7-.5v1.2c0 1.1-.9 1.9-2.1 1.9z"/><path class="cls-2" d="M69.7 22.8c-.7 1-1.9 1.6-3.1 1.6-2.4 0-4-1.6-4-3.9v-6.9h3.7v6.2c0 1.1.5 1.8 1.6 1.8s1.8-.9 1.8-2.1v-5.8H73v10.6h-3.2v-1.4z"/></g></svg>