<svg xmlns="http://www.w3.org/2000/svg" viewBox="0 0 105.2 34"><path d="M19.09 22.74c-.66.86-1.39 1.39-2.64 1.39s-2.12-.53-2.12-2.12v-6.48h-2.25v7.27c0 2.05 1.06 3.24 3.31 3.24 1.32 0 2.71-.53 3.64-1.59v1.39h2.31V15.46h-2.25v7.27zm7.41-5.69v-1.52h-2.25v10.25h2.25v-7.01c.4-.79 1.65-1.39 2.64-1.39.2 0 .4 0 .66.13v-2.25c-1.26 0-2.51.79-3.31 1.79zm9.98-1.72c-3.11 0-5.29 2.45-5.29 5.36s2.31 5.36 5.36 5.36c2.09 0 3.04-.53 4.03-1.39l-.89-1.43c-.85.65-1.77 1.1-2.88 1.1-1.98 0-3.17-1.26-3.24-2.84h8v-.53c0-3.24-1.98-5.62-5.09-5.62zm-3.04 4.43c.13-1.19 1.06-2.71 2.91-2.71 2.05 0 2.91 1.52 2.91 2.71h-5.82zM3.62 18.31c0-.73.6-1.26 1.85-1.26s2.45.53 3.04 1.19l.93-1.59c-1.12-.99-2.64-1.45-4.03-1.45-.43 0-4.03-.07-4.03 3.17 0 3.97 6.22 2.51 6.22 4.56 0 .86-.66 1.39-2.05 1.39-1.26-.07-2.58-.53-3.5-1.45l-.99 1.59c1.08 1.08 2.23 1.59 4.43 1.59 2.45 0 4.36-1.08 4.36-3.17 0-4.1-6.22-2.78-6.22-4.56zm94.75 0c0-.73.6-1.26 1.85-1.26s2.45.53 3.04 1.19l.93-1.59c-1.12-.99-2.57-1.45-4.03-1.45-2.58 0-4.03 1.15-4.03 3.17 0 3.97 6.22 2.51 6.22 4.56 0 .86-.66 1.39-2.05 1.39-1.26-.07-2.58-.53-3.5-1.45l-1.06 1.59s1.13 1.59 4.56 1.59c2.78 0 4.3-.92 4.3-3.17 0-4.1-6.22-2.78-6.22-4.56zM82.83 15.2c-1.32 0-2.51.66-3.31 1.72v-1.45h-2.25v14.22h2.25v-5.42c.86 1.19 1.67 1.79 3.31 1.79 2.71 0 4.56-2.12 4.56-5.49s-1.92-5.36-4.56-5.36zm-.73 8.93c-1.06-.07-2.05-.6-2.64-1.45v-4.1c.6-.86.79-1.39 2.64-1.39s2.98 1.45 2.98 3.44-1.19 3.5-2.98 3.5zm-10.05-8.6h2.25v10.31h-2.25V15.53zm20.37-2.58h-2.25v2.58h-1.72v1.98h1.72v5.88c0 1.65.93 2.64 2.64 2.64.53 0 1.06-.07 1.52-.33v-1.85c-.18.13-.48.2-.93.2-.66 0-.99-.53-.99-1.19V17.5h2.12v-1.98h-2.12v-2.58zm-19.18-1.26c-.66 0-1.26.6-1.26 1.26s.6 1.26 1.26 1.26 1.26-.6 1.26-1.26c0-.73-.6-1.26-1.26-1.26zm-27.83 6.62c0-.73.6-1.26 1.85-1.26s2.45.53 3.04 1.19l.93-1.59c-1.12-.99-2.63-1.45-4.03-1.45-2.58 0-4.03 1.02-4.03 3.17 0 3.97 6.22 2.51 6.22 4.56 0 .86-.66 1.39-2.05 1.39-1.26-.07-2.58-.53-3.5-1.45l-.99 1.59c1.08 1.08 2.41 1.59 4.43 1.59 2.78 0 4.36-1.21 4.36-3.17 0-4.1-6.22-2.78-6.22-4.56zm21.49-1.26v-1.52h-2.31v10.38h2.31V18.9c.4-.79 1.65-1.39 2.64-1.39h.66v-2.25c-1.26 0-2.51.79-3.31 1.79zm-8.27.2c.93 0 1.85.4 2.38 1.19l1.45-1.39c-.73-.93-2.52-1.79-3.9-1.79-3.04 0-5.29 2.18-5.29 5.36s2.12 5.49 5.29 5.49c2.05 0 3.11-.79 3.9-1.79l-1.45-1.39c-.6.73-1.01 1.19-2.38 1.19-1.92 0-3.17-1.39-3.17-3.44s1.39-3.44 3.17-3.44zM3.02 12.77l.33.2c2.98-5.1 9.06-8.6 16.01-8.6s12.96 3.5 16.07 8.66l.33-.2c-7.02-13.8-25.2-13.8-32.74-.06z" style="fill:#fff"/></svg>