<?xml version="1.0" encoding="UTF-8"?>
<svg xmlns="http://www.w3.org/2000/svg" version="1.1" viewBox="0 0 105.6 34">
  <!-- Generator: Adobe Illustrator 28.7.1, SVG Export Plug-In . SVG Version: 1.2.0 Build 142)  -->
  <g>
    <g id="Layer_1">
      <g>
        <path d="M31.2,13.5h-2.2c0,0-.2,0-.2.2l-2,7-2-7c0,0-.2-.2-.2-.2h-2.2c-.2,0-.2.2-.2.3l3.3,9.4c0,0,.2.2.2.2h2.4c0,0,.2,0,.2-.2l3.2-9.4c.2-.2,0-.3-.2-.3Z"></path>
        <path d="M38.7,15.5v-1.7c0-.2,0-.2-.2-.2h-2.1c-.2,0-.2,0-.2.2v9.4c0,.2,0,.2.2.2h2.1c.2,0,.2,0,.2-.2v-4.8c0-1.4,1.3-2.7,2.7-2.4.2,0,.2,0,.2-.2v-2.4h-.3c-1.1,0-2.2.7-2.7,2.1Z"></path>
        <path d="M53.8,10.6l-2.1.5c0,0-.2.2-.2.2v11.8c0,.2,0,.2.2.2h2.1c.2,0,.2,0,.2-.2v-12.3c0-.2-.1-.2-.3-.2Z"></path>
        <path d="M63.7,13.3c-1.4,0-2.2.5-3,1.6v-1.2c0-.2,0-.2-.2-.2h-2.1c-.2,0-.2,0-.2.2v9.4c0,.2,0,.2.2.2h2.1c.2,0,.2,0,.2-.2v-5.6c0-1.1.8-1.9,2.1-1.9s1.7.6,1.7,1.8v5.9c0,.2,0,.2.2.2h2.1c.2,0,.2,0,.2-.2v-6.5c-.1-2.2-1.3-3.4-3.4-3.4Z"></path>
        <path d="M76.2,22v-5.7c0-2-1.3-3-4-3s-3.9,1.1-4.2,3.2c0,.2,0,.2.2.2h2.1c.2,0,.2,0,.2-.2.2-.9.6-1.1,1.8-1.1s1.4.3,1.4,1-.2.6-.5.8c-.2.2-.8.2-1.6.4l-1.1.2c-2,.3-2.9,1.4-2.9,3.1s1.2,3,3,3,1.8-.4,2.7-1.1c.2-.2.3,0,.4.2,0,.2,0,.3.2.5,0,0,0,0,.2,0h2.7v-.3c-.5-.5-.6-.7-.6-1.2ZM73.8,19.4c0,1.4-.8,2.3-2,2.3s-1.4-.5-1.4-1.2.4-1.1,1.4-1.4l.9-.2c.5,0,.6-.2.8-.2.2,0,.3,0,.3.2v.4Z"></path>
        <path d="M84.9,13.5h-2.1c-.2,0-.2,0-.2.2v9.4c0,.2,0,.2.2.2h2.1c.2,0,.2,0,.2-.2v-9.4c0-.1,0-.2-.2-.2Z"></path>
        <path d="M91,13.3c-3,0-4.8,2-4.8,5.2s1.8,5.2,4.9,5.2,4.9-2,4.9-5.1c-.1-3.4-1.9-5.3-5-5.3ZM91,21.7c-1.4,0-2.3-1.2-2.3-3.2s.9-3.2,2.3-3.2,2.3,1.2,2.3,3.2-.9,3.2-2.3,3.2Z"></path>
        <path d="M102.4,13.3c-1.4,0-2.2.5-3,1.6v-1.2c0-.2,0-.2-.2-.2h-2.1c-.2,0-.2,0-.2.2v9.4c0,.2,0,.2.2.2h2.1c.2,0,.2,0,.2-.2v-5.6c0-1.1.8-1.9,2.1-1.9s1.6.6,1.6,1.8v5.9c0,.2,0,.2.2.2h2.1c.2,0,.2,0,.2-.2v-6.5c.1-2.2-1.1-3.4-3.3-3.4Z"></path>
        <path d="M46.3,13.3c-2.5,0-3.9,1.1-4.2,3.2,0,.2,0,.2.2.2h2.1c.2,0,.2,0,.2-.2.2-.9.6-1.1,1.8-1.1s1.4.3,1.4,1-.2.6-.5.8c-.2.2-.8.2-1.6.4l-1.1.2c-2,.3-2.9,1.4-2.9,3.1s1.2,3,3,3,1.8-.4,2.7-1.1c.2-.2.3,0,.4.2,0,.2,0,.3.2.5,0,0,0,0,.2,0h1.8c.2,0,.2,0,.2-.2v-6.8c0-2.1-1.3-3.1-4-3.1ZM47.8,19.4c0,1.4-.8,2.3-2,2.3s-1.4-.5-1.4-1.2.4-1.1,1.4-1.4l.9-.2c.5,0,.6-.2.8-.2.2,0,.3,0,.3.2v.4Z"></path>
        <path d="M81,15.2c.2,0,.2,0,.2-.2l.5-1.2c0-.2,0-.2-.2-.2h-1.4v-2.7c0-.2-.2-.2-.3-.2l-2.1.5c0,0-.2.2-.2.2v3.7c0,.2,0,.2.2.2h1.8l-1.8,1.1c0,0-.2.2-.2.3v4.6c0,1.5.8,2.3,2.5,2.3s.9,0,1.3-.2c0,0,.2-.2.2-.2v-1.4c0-.2-.2-.2-.2-.2h-.3c-.7,0-.8-.2-.8-1.1v-5.3h.9Z"></path>
        <path d="M34.6,13.5h-2.1c-.2,0-.2,0-.2.2v9.4c0,.2,0,.2.2.2h2.1c.2,0,.2,0,.2-.2v-9.4c0-.1-.1-.2-.2-.2Z"></path>
        <path d="M34.7,10.2h-2.1c-.2,0-.2,0-.2.2v1.8c0,.2,0,.2.2.2h2.1c.2,0,.2,0,.2-.2v-1.8c0-.2,0-.2-.2-.2Z"></path>
        <path d="M85,10.2h-2.1c-.2,0-.2,0-.2.2v1.8c0,.2,0,.2.2.2h2.1c.2,0,.2,0,.2-.2v-1.8c-.1-.2-.2-.2-.2-.2Z"></path>
        <path d="M20.4,9h-2.5l-7.5,12.9-3.5-6.2-1.5,2.6,3.7,6.5c0,0,.2.2.2.2h2.3c0,0,.2,0,.2-.2l8.9-15.5c0-.1-.2-.4-.4-.4Z"></path>
        <path d="M10.3,19.6l6.2-10.6h-2.9c0,0-.2,0-.2.2l-3,5.2-3-5.2c0,0-.2-.2-.2-.2H.3c-.2,0-.3.2-.2.4l4.5,7.7,2.2-3.8,3.6,6.3Z"></path>
      </g>
    </g>
  </g>
</svg>
